<svg width="1140" height="360" xmlns="http://www.w3.org/2000/svg">
 <defs>
  <style>.cls-1{fill:#7fba00;}.cls-2{fill:#fff;}</style>
 </defs>
 <title>banner3b</title>
 <g>
  <title>background</title>
  <rect fill="none" id="canvas_background" height="402" width="582" y="-1" x="-1"/>
 </g>
 <g>
  <title>Layer 1</title>
  <path id="svg_1" d="m0,0l1140,0l0,360l-1140,0l0,-360z" class="cls-1"/>
  <path transform="translate(268,-130) " id="svg_2" d="m160.65,102.95l0,11.64l-3.65,0l0,-30.81l8.46,0q4.94,0 7.66,2.41a8.59,8.59 0 0 1 2.76,6.81a9.34,9.34 0 0 1 -3,7.18a11.53,11.53 0 0 1 -8.15,2.79l-4.06,0l-0.02,-0.02zm0.02,-15.88l0,12.61l3.78,0a8.45,8.45 0 0 0 5.7,-1.71a6,6 0 0 0 2,-4.82q0,-6.1 -7.22,-6.1l-4.23,0l-0.03,0.02zm34.19,27.54l-3.52,0l0,-3.44l-0.09,0a7.38,7.38 0 0 1 -6.77,4a7.23,7.23 0 0 1 -5.15,-1.74a6,6 0 0 1 -1.86,-4.62q0,-6.17 7.26,-7.18l6.6,-0.92q0,-5.61 -4.53,-5.61a10.83,10.83 0 0 0 -7.18,2.71l0,-3.67a13.63,13.63 0 0 1 7.48,-2.06q7.76,0 7.76,8.21l0,14.31l0,0.01zm-3.52,-11.13l-5.31,0.73a8.62,8.62 0 0 0 -3.7,1.21a3.5,3.5 0 0 0 -1.25,3.08a3.36,3.36 0 0 0 1.15,2.63a4.44,4.44 0 0 0 3.06,1a5.66,5.66 0 0 0 4.33,-1.84a6.56,6.56 0 0 0 1.71,-4.65l0,-2.19l0.01,0.03zm24.54,10.12a11.45,11.45 0 0 1 -6,1.53a10,10 0 0 1 -7.59,-3.06a11.09,11.09 0 0 1 -2.89,-7.94a12.2,12.2 0 0 1 3.12,-8.73a10.9,10.9 0 0 1 8.31,-3.3a11.58,11.58 0 0 1 5.11,1.07l0,3.61a9,9 0 0 0 -5.28,-1.78a7.08,7.08 0 0 0 -5.53,2.42a9.17,9.17 0 0 0 -2.16,6.35a8.73,8.73 0 0 0 2,6.1a7,7 0 0 0 5.45,2.23a8.83,8.83 0 0 0 5.41,-1.91l0,3.35l0.05,0.06zm23,1l-4.94,0l-9.76,-10.6l-0.09,0l0,10.57l-3.52,0l0,-32.57l3.52,0l0,20.65l0.09,0l9.24,-10.08l4.58,0l-10.21,10.61l11.09,11.42zm18.74,0l-3.62,0l0,-3.44l0,0a7.38,7.38 0 0 1 -6.77,4a7.23,7.23 0 0 1 -5.15,-1.74a6,6 0 0 1 -1.86,-4.62q0,-6.17 7.26,-7.18l6.6,-0.92q-0.08,-5.7 -4.57,-5.7a10.83,10.83 0 0 0 -7.18,2.71l0,-3.57a13.63,13.63 0 0 1 7.48,-2.06q7.76,0 7.76,8.21l0,14.31l0.05,0zm-3.57,-11.14l-5.31,0.73a8.62,8.62 0 0 0 -3.7,1.21a3.5,3.5 0 0 0 -1.25,3.08a3.36,3.36 0 0 0 1.15,2.63a4.44,4.44 0 0 0 3.06,1a5.66,5.66 0 0 0 4.33,-1.84a6.56,6.56 0 0 0 1.71,-4.65l0,-2.19l0.01,0.03zm31.89,20.51q0,12.12 -11.6,12.12a15.58,15.58 0 0 1 -7.13,-1.55l0,-3.52a14.65,14.65 0 0 0 7.09,2.06q8.12,0 8.12,-8.64l0,-13.54l-0.09,0a8.9,8.9 0 0 1 -14.17,1.28a11.72,11.72 0 0 1 -2.5,-7.87q0,-5.61 2.7,-8.92a9,9 0 0 1 7.38,-3.31a7.17,7.17 0 0 1 6.6,3.57l0.09,0l0,-3.06l3.52,0l0,20.24l-0.01,11.14zm-3.52,-8.19l0,-14.38a6.29,6.29 0 0 0 -1.77,-4.49a5.84,5.84 0 0 0 -7.99,-1.91a6.12,6.12 0 0 0 -5.11,2.37a10.6,10.6 0 0 0 -1.85,6.65a9.1,9.1 0 0 0 1.77,5.88a5.73,5.73 0 0 0 4.69,2.2a6.13,6.13 0 0 0 4.84,-2.1a7.85,7.85 0 0 0 1.85,-5.36l3.57,11.14zm27.72,-0.17l-19.14,0a8.23,8.23 0 0 0 2,5.67a6.81,6.81 0 0 0 5.2,2a10.81,10.81 0 0 0 6.83,-2.45l0,-7.83a12.77,12.77 0 0 1 -7.67,2.11a9.3,9.3 0 0 1 -7.33,-3q-2.66,-3 -2.66,-8.43a12,12 0 0 1 2.91,-8.37a9.34,9.34 0 0 1 7.23,-3.23a8.27,8.27 0 0 1 6.68,2.79q2.36,2.79 2.36,7.76l0,1.85l3.59,11.13zm-3.61,-3a7.18,7.18 0 0 0 -1.47,-4.75a5,5 0 0 0 -4,-1.7a5.69,5.69 0 0 0 -4.23,1.78a8.09,8.09 0 0 0 -2.15,4.66l8.32,0l3.53,0.01zm7,12.31l0,-14.92a10.42,10.42 0 0 0 6.34,2.13q4.64,0 4.64,-3.09a2.69,2.69 0 0 0 -0.4,-1.49a4,4 0 0 0 -1.07,-1.09a8.3,8.3 0 0 0 -1.59,-0.85l-2,-0.78a25.19,25.19 0 0 1 -2.57,-1.17a7.74,7.74 0 0 1 -1.85,-1.33a5,5 0 0 1 -1.12,-1.69a6,6 0 0 1 -0.38,-2.21a5.26,5.26 0 0 1 0.71,-2.74a6.29,6.29 0 0 1 1.89,-2a8.82,8.82 0 0 1 2.7,-1.21a12,12 0 0 1 3.13,-0.41a12.63,12.63 0 0 1 5.11,1l0,3.57a10,10 0 0 0 -9.13,-1.64a6.52,6.52 0 0 0 -1.78,0.23a4.36,4.36 0 0 0 -1.36,0.63a2.92,2.92 0 0 0 -0.88,1a2.57,2.57 0 0 0 -0.31,1.26a3,3 0 0 0 0.31,1.44a3.16,3.16 0 0 0 0.91,1a6.94,6.94 0 0 0 1.46,0.82q0.86,0.37 2,0.79a27.4,27.4 0 0 1 2.62,1.15a9,9 0 0 1 2,1.33a5.21,5.21 0 0 1 1.26,1.71a5.52,5.52 0 0 1 0.44,2.3a5.42,5.42 0 0 1 -0.72,2.84a6.17,6.17 0 0 1 -1.92,2a8.81,8.81 0 0 1 -2.77,1.18a13.69,13.69 0 0 1 -3.29,0.39a12.48,12.48 0 0 1 -5.91,-1.27l3.53,11.12zm129.09,1.2l-20.62,-35.85q-0.32,-0.47 -0.63,-1a6.22,6.22 0 0 1 -0.5,-1l-0.11,0q0,0.39 0.08,1.07t0,1.72l0,23.94l-2.84,0l0,-30.81l3.16,0l16.84,24.43q0.39,0.58 0.7,1.08l0.57,0.93l0.11,0q-0.09,-0.71 -0.13,-1.59t0,-2l0,-22.85l2.88,0l0,30.81l-3,0l3.49,11.12zm-104.81,-1.2l0,-3.74l-0.09,0a7.35,7.35 0 0 1 -6.94,4.25q-7.84,0 -7.84,-9.58l0,-22.85l2.75,0l0,12.42q0,4 1.41,5.84a5,5 0 0 0 4.31,1.89a6,6 0 0 0 2.59,-0.55a5.91,5.91 0 0 0 2,-1.55a7.25,7.25 0 0 0 1.32,-2.4a9.61,9.61 0 0 0 0.47,-3.09l0,-12.56l2.75,0l0,22l-2.75,0l0.02,9.92zm32.32,-2.13a20.24,20.24 0 0 1 -10.05,2.66a15,15 0 0 1 -6,-1.15a13,13 0 0 1 -4.53,-3.2a14.11,14.11 0 0 1 -2.87,-4.9a18.8,18.8 0 0 1 -1,-6.26a19.15,19.15 0 0 1 0.48,-4.34a17,17 0 0 1 1.42,-3.91a15.06,15.06 0 0 1 2.29,-3.31a14.31,14.31 0 0 1 3.1,-2.56a14.9,14.9 0 0 1 3.86,-1.65a17,17 0 0 1 4.53,-0.58a19.51,19.51 0 0 1 8.16,1.63l0,3.16a17.27,17.27 0 0 0 -8.51,-2.19a12.2,12.2 0 0 0 -5.09,1a11.39,11.39 0 0 0 -3.88,2.84a12.9,12.9 0 0 0 -2.48,4.26a16.08,16.08 0 0 0 -0.9,5.34a17,17 0 0 0 126.34,-4.63a11.83,11.83 0 0 0 2.27,4.18a10.36,10.36 0 0 0 3.72,2.75a12.42,12.42 0 0 0 5.11,1a13.53,13.53 0 0 0 6.79,-1.63l0,-9.39l-7,0l0,-2.6l9.86,0l0,13.56l-125.62,9.92zm7.38,-8.38a12.32,12.32 0 0 0 0.54,3.63a7.69,7.69 0 0 0 1.48,2.73a6.36,6.36 0 0 0 2.35,1.71a7.89,7.89 0 0 0 3.13,0.59a11.19,11.19 0 0 0 7,-2.6l0,2.71a12.81,12.81 0 0 1 -7.65,2.26a10.1,10.1 0 0 1 -4,-0.77a8.32,8.32 0 0 1 -3.07,-2.25a10.25,10.25 0 0 1 -2,-3.62a16.05,16.05 0 0 1 -0.69,-4.9a13.51,13.51 0 0 1 126.4,-14.5a11.29,11.29 0 0 1 2.08,-3.64a9.61,9.61 0 0 1 3.16,-2.41a9.17,9.17 0 0 1 4,-0.87a9,9 0 0 1 3.76,0.74a7.38,7.38 0 0 1 2.74,2.12a9.59,9.59 0 0 1 1.69,3.35a15.7,15.7 0 0 1 0.58,4.43l0,1.38l-15.9,0l-125.6,9.91zm13.06,-2.41a8.38,8.38 0 0 0 -1.63,-5.33a5.36,5.36 0 0 0 -4.36,-1.89a6.7,6.7 0 0 0 -2.59,0.49a6.16,6.16 0 0 0 -2.09,1.43a7.7,7.7 0 0 0 124.1,-7.63a11.42,11.42 0 0 0 -0.83,3l13,0l-125.6,9.93zm17.07,12.65a6.82,6.82 0 0 1 -3.09,0.71q-5.33,0 -5.33,-6.14l0,-23.81l-3.87,0l0,-2.41l3.87,0l0,-5.54l2.75,-0.9l0,6.44l5.67,0l0,2.41l-5.67,0l0,13.47a5.51,5.51 0 0 0 0.73,3.22a2.87,2.87 0 0 0 2.47,1a4.45,4.45 0 0 0 2.47,-0.77l0,2.43l0,9.89zm190.75,0.24l0,-22.57q0,-7.45 -5.41,-7.46a6.24,6.24 0 0 0 -2.66,0.57a6.39,6.39 0 0 0 -2.12,1.57a7.41,7.41 0 0 0 -1.4,2.4a8.68,8.68 0 0 0 -0.5,3l0,12.6l-2.75,0l0,-22l2.75,0l0,3.82l0.09,0a8,8 0 0 1 7.37,-4.34a6.65,6.65 0 0 1 5.5,2.34q1.89,2.34 1.89,6.77l0,13.41l-2.75,0l-0.01,9.89zm-179.25,-3.78l0,13.66l-2.75,0l0,-41.77l2.75,0l0,4.21l190.86,0a8.74,8.74 0 0 1 3.28,-3.51a9.55,9.55 0 0 1 8.4,-0.45a7.82,7.82 0 0 1 2.81,2.16a9.79,9.79 0 0 1 1.76,3.39a15.3,15.3 0 0 1 0.61,4.49a17,17 0 0 1 -0.69,5a11.47,11.47 0 0 1 -2,3.86a9,9 0 0 1 -3.13,2.5a9.35,9.35 0 0 1 -4.14,0.89a7.48,7.48 0 0 1 -6.94,-4.06l-0.09,0l-190.73,9.63zm0,-5.61a7.84,7.84 0 0 0 0.5,2.83a7.31,7.31 0 0 0 192.16,-7.33a6.54,6.54 0 0 0 2.18,1.58a6.76,6.76 0 0 0 2.83,0.58a6.33,6.33 0 0 0 3,-0.7a6.52,6.52 0 0 0 2.27,-2a9.63,9.63 0 0 0 1.44,-3.12a15.34,15.34 0 0 0 0.5,-4.08a12,12 0 0 0 -0.47,-3.49a7.92,7.92 0 0 0 -1.34,-2.65a5.82,5.82 0 0 0 -2.11,-1.68a6.42,6.42 0 0 0 -2.76,-0.58a7.31,7.31 0 0 0 -3.09,0.63a7,7 0 0 0 -2.34,1.73a7.67,7.67 0 0 0 -1.48,2.57a9.39,9.39 0 0 0 -0.52,3.13l0,2.92l-190.77,9.66zm49.51,9.16l0,-22.59a15.75,15.75 0 0 0 -0.3,-3.34a5.83,5.83 0 0 0 -0.93,-2.22a3.64,3.64 0 0 0 -1.61,-1.25a6.34,6.34 0 0 0 -2.33,-0.39a4.8,4.8 0 0 0 -2.28,0.57a6,6 0 0 0 188.89,1.56a7.61,7.61 0 0 0 -1.27,2.35a9,9 0 0 0 -0.46,2.92l0,12.73l-2.75,0l0,-13.21q0,-6.92 -5.31,-6.92a4.86,4.86 0 0 0 -2.28,0.55a5.67,5.67 0 0 0 -1.83,1.58a7.35,7.35 0 0 0 -1.19,2.33a10,10 0 0 0 -0.44,3.06l0,12.61l-2.75,0l0,-22l2.75,0l0,3.57l0.09,0a7.37,7.37 0 0 1 6.77,-4.08a6.69,6.69 0 0 1 2.19,0.35a6.36,6.36 0 0 1 1.85,1a6.47,6.47 0 0 1 1.41,1.51a6.83,6.83 0 0 1 0.89,1.93a8.83,8.83 0 0 1 3,-3.57a7.46,7.46 0 0 1 4.2,-1.22q7.24,0 7.24,8.94l0,13.57l-2.75,0l-190.8,9.66zm8.04,-9.16l0,-31.31l8.42,0a10.8,10.8 0 0 1 3.45,0.52a7.74,7.74 0 0 1 2.62,1.45a6.28,6.28 0 0 1 1.66,2.25a7,7 0 0 1 0.58,2.88a8.26,8.26 0 0 1 -0.37,2.49a7.43,7.43 0 0 1 -1.05,2.12a7,7 0 0 1 -1.69,1.65a8.44,8.44 0 0 1 -2.27,1.11l0,0.09a8.43,8.43 0 0 1 2.81,0.75a7.1,7.1 0 0 1 2.17,1.57a6.86,6.86 0 0 1 1.4,2.27a8,8 0 0 1 0.49,2.85a8.83,8.83 0 0 1 -0.71,3.58a8.18,8.18 0 0 1 -2,2.79a9,9 0 0 1 -3,1.82a11.25,11.25 0 0 1 -3.89,0.64l231.69,0l-240.31,0.48zm-54.69,-28.19l0,10.44l4,0a9.22,9.22 0 0 0 2.84,-0.41a6.22,6.22 0 0 0 2.17,-1.18a5.19,5.19 0 0 0 1.39,-1.87a6.06,6.06 0 0 0 0.48,-2.47q0,-5 -6.23,-5l-4.64,0l-0.01,0.49zm0,13.51l0,11.58l5.31,0a7.75,7.75 0 0 0 5.25,-1.6a5.7,5.7 0 0 0 1.84,-4.54q0,-5.93 -8.06,-5.93l-4.34,0l0,0.49zm29.66,15.19a11.26,11.26 0 0 1 -4.39,-0.82a9.38,9.38 0 0 1 -3.32,-2.31a10.17,10.17 0 0 1 -2.11,-3.58a13.88,13.88 0 0 1 -0.73,-4.62a14.6,14.6 0 0 1 0.77,-4.92a10.35,10.35 0 0 1 2.2,-3.68a9.41,9.41 0 0 1 3.45,-2.31a12.23,12.23 0 0 1 4.51,-0.79a11.24,11.24 0 0 1 4.3,0.78a8.77,8.77 0 0 1 3.24,2.27a10.1,10.1 0 0 1 2,3.61a15.25,15.25 0 0 1 0.71,4.83a14.12,14.12 0 0 1 -0.74,4.69a10.59,10.59 0 0 1 -2.12,3.64a9.37,9.37 0 0 1 -3.35,2.36a11.35,11.35 0 0 1 293.43,0.36l-297.85,0.49zm0.21,-20.65a8.25,8.25 0 0 0 -3.27,0.62a6.85,6.85 0 0 0 -2.5,1.82a8.2,8.2 0 0 0 -1.6,2.92a12.75,12.75 0 0 0 -0.56,3.92a11.58,11.58 0 0 0 0.56,3.72a8.37,8.37 0 0 0 1.58,2.84a6.81,6.81 0 0 0 2.48,1.82a8.87,8.87 0 0 0 6.53,0a6.45,6.45 0 0 0 2.41,-1.78a7.85,7.85 0 0 0 1.49,-2.87a13.59,13.59 0 0 0 0.5,-3.87q0,-4.45 -2,-6.8a7,7 0 0 0 292.23,-2.83l-297.85,0.49zm35.28,20.13l-2.75,0l-4.66,-16.16a12,12 0 0 1 -0.34,-2l-0.09,0q0,0.32 -0.14,0.79a9.84,9.84 0 0 1 -0.31,1.12l292.7,15.76l-2.69,0l-6.66,-22l2.94,0l4.85,17.06a9.67,9.67 0 0 1 0.3,1.91l0.17,0q0,-0.39 0.14,-0.88a10.47,10.47 0 0 1 0.27,-1.05l5.33,-17l2.28,0l4.77,17.08a13.44,13.44 0 0 1 0.32,1.91l0.17,0a3.17,3.17 0 0 1 0.09,-0.85q0.11,-0.48 0.28,-1.06l4.82,-17.12l2.77,0l-304.56,22.49zm-23.89,-30.64a12.3,12.3 0 0 0 0.54,3.63a7.69,7.69 0 0 0 1.48,2.73a6.36,6.36 0 0 0 2.35,1.71a7.9,7.9 0 0 0 3.13,0.59a11.19,11.19 0 0 0 7,-2.6l0,2.71a12.82,12.82 0 0 1 -7.65,2.26a10.09,10.09 0 0 1 -4,-0.77a8.32,8.32 0 0 1 -3.07,-2.25a10.23,10.23 0 0 1 -2,-3.62a16,16 0 0 1 -0.69,-4.9a13.5,13.5 0 0 1 0.75,-4.58a11.26,11.26 0 0 1 2.08,-3.64a9.58,9.58 0 0 1 3.16,-2.41a9.17,9.17 0 0 1 4,-0.87a9,9 0 0 1 3.76,0.74a7.38,7.38 0 0 1 335.9,21.76a9.58,9.58 0 0 1 1.69,3.35a15.7,15.7 0 0 1 0.58,4.43l0,1.38l-15.9,0l-333.11,-19.65zm13.06,-2.41a8.38,8.38 0 0 0 -1.63,-5.33a5.36,5.36 0 0 0 -4.36,-1.89a6.7,6.7 0 0 0 -2.59,0.49a6.16,6.16 0 0 0 -2.09,1.43a7.73,7.73 0 0 0 -1.49,2.28a11.4,11.4 0 0 0 -0.83,3l13,0l-0.01,0.02zm351.67,13.39a4.11,4.11 0 0 0 -2.49,-0.71a4.27,4.27 0 0 0 -1.93,0.42a4.89,4.89 0 0 0 -1.47,1.13a6.76,6.76 0 0 0 -1.1,1.63a11.42,11.42 0 0 0 -0.71,1.94a14.07,14.07 0 0 0 -0.39,2a17.13,17.13 0 0 0 -0.12,2l0,10.76l-2.73,0l0,-22l2.73,0l0,4.71l0.09,0a9.77,9.77 0 0 1 1,-2.16a6.71,6.71 0 0 1 1.36,-1.61a5.71,5.71 0 0 1 1.69,-1a5.42,5.42 0 0 1 1.92,-0.34a7.48,7.48 0 0 1 1.19,0.09a4.59,4.59 0 0 1 1,0.26l0,2.88l-0.04,0zm-278,3.67a20.24,20.24 0 0 1 -10.05,2.66a15,15 0 0 1 -6,-1.15a13,13 0 0 1 -4.53,-3.2a14.12,14.12 0 0 1 -2.87,-4.9a18.8,18.8 0 0 1 -1,-6.26a19.15,19.15 0 0 1 0.48,-4.34a17,17 0 0 1 1.42,-3.91a15,15 0 0 1 2.29,-3.31a14.32,14.32 0 0 1 3.1,-2.56a14.89,14.89 0 0 1 3.86,-1.65a17,17 0 0 1 4.53,-0.58a19.51,19.51 0 0 1 359.78,15.01l0,3.16a17.27,17.27 0 0 0 -8.51,-2.19a12.2,12.2 0 0 0 -5.09,1a11.4,11.4 0 0 0 -3.88,2.84a12.9,12.9 0 0 0 -2.48,4.26a16.05,16.05 0 0 0 -0.9,5.34a17,17 0 0 0 0.74,5.27a11.83,11.83 0 0 0 2.27,4.18a10.36,10.36 0 0 0 3.72,2.75a12.42,12.42 0 0 0 5.11,1a13.53,13.53 0 0 0 6.79,-1.63l0,-9.39l-7,0l0,-2.6l9.86,0l0,13.56l-351.64,-13.36zm20.47,2.14l0,-3.74l351.54,0a7.35,7.35 0 0 1 -6.94,4.25q-7.84,0 -7.84,-9.58l0,0.43l2.78,0l0,12.42q0,4 1.41,5.84a5,5 0 0 0 4.31,1.89a6,6 0 0 0 2.59,-0.55a5.92,5.92 0 0 0 2,-1.55a7.25,7.25 0 0 0 1.32,-2.4a9.59,9.59 0 0 0 0.47,-3.09l0,-12.56l2.75,0l0,22l-2.75,0l-351.64,-13.36zm-11.25,-2.14l0,-17.07l2.75,0l0,32.57l-2.75,0l0,-15.5zm12,-3.54l0,13.66l-2.75,0l0,-16.62l2.75,0l0,4.21l0.09,0a8.75,8.75 0 0 1 3.28,-3.51a9.55,9.55 0 0 1 8.4,-0.45a7.8,7.8 0 0 1 2.81,2.16a9.78,9.78 0 0 1 1.76,3.39a15.3,15.3 0 0 1 0.61,4.49a17,17 0 0 1 -0.69,5a11.49,11.49 0 0 1 -2,3.86a9,9 0 0 1 -3.13,2.5a9.35,9.35 0 0 1 -4.13,0.89a7.48,7.48 0 0 1 -6.94,-4.06l372.03,0l-372.09,-15.52zm0,-5.61a7.86,7.86 0 0 0 0.5,2.83a7.34,7.34 0 0 0 1.41,2.32a6.55,6.55 0 0 0 2.18,1.58a6.76,6.76 0 0 0 2.83,0.58a6.33,6.33 0 0 0 3,-0.7a6.53,6.53 0 0 0 2.27,-2a9.61,9.61 0 0 0 1.44,-3.12a15.3,15.3 0 0 0 0.51,-4.08a12,12 0 0 0 -0.47,-3.49a7.94,7.94 0 0 0 -1.34,-2.65a5.81,5.81 0 0 0 -2.11,-1.68a6.42,6.42 0 0 0 -2.76,-0.58a7.31,7.31 0 0 0 -3.09,0.63a7,7 0 0 0 -2.34,1.73a7.66,7.66 0 0 0 -1.48,2.57a9.39,9.39 0 0 0 -0.52,3.13l0,2.92l-0.03,0.01zm-212.74,-35.34l-1,0l0,90l1,0l0,-90.01l0,0.01z" class="cls-2"/>
  <text stroke="null" transform="matrix(1.6951766349667992,0,0,2.4324364860135006,-178.75080141175584,-63.646713470099826) " xml:space="preserve" text-anchor="start" font-family="Helvetica, Arial, sans-serif" font-size="24" id="svg_4" y="75.2" x="255.841473" stroke-opacity="null" stroke-width="0" fill="#ffffff">旅游,骑行,足迹遍四洲！</text>
 </g>
</svg>