<svg width="1140" height="360" xmlns="http://www.w3.org/2000/svg">

 <g>
  <title>background</title>
  <rect fill="none" id="canvas_background" height="402" width="582" y="-1" x="-1"/>
 </g>
 <g>
  <title>Layer 1</title>
  <path id="svg_1" d="m0,0l1140,0l0,360l-1140,0l0,-360z" fill="#1D4380"/>
  <path id="svg_2" d="m183.061,-29l-3.751,0l0,-21.607c0,-1.707 0.104,-3.796 0.314,-6.267l-0.09,0c-0.359,1.453 -0.682,2.493 -0.966,3.122l-11.005,24.752l-1.842,0l-10.983,-24.572c-0.314,-0.719 -0.637,-1.819 -0.966,-3.302l-0.09,0c0.12,1.288 0.18,3.392 0.18,6.312l0,21.562l-3.639,0l0,-32.209l4.986,0l9.883,22.461c0.764,1.722 1.258,3.01 1.482,3.863l0.135,0c0.644,-1.767 1.16,-3.084 1.55,-3.953l10.085,-22.371l4.717,0l0,32.209zm9.032,-28.84c-0.659,0 -1.221,-0.225 -1.685,-0.674c-0.464,-0.449 -0.696,-1.018 -0.696,-1.707c0,-0.688 0.232,-1.261 0.696,-1.718c0.464,-0.457 1.025,-0.685 1.685,-0.685c0.674,0 1.247,0.229 1.718,0.685c0.472,0.457 0.708,1.03 0.708,1.718c0,0.659 -0.236,1.221 -0.708,1.685c-0.472,0.464 -1.044,0.696 -1.718,0.696zm1.797,28.84l-3.684,0l0,-23l3.684,0l0,23zm22.307,-1.056c-1.767,1.063 -3.863,1.595 -6.289,1.595c-3.279,0 -5.926,-1.067 -7.94,-3.201c-2.014,-2.134 -3.021,-4.9 -3.021,-8.299c0,-3.788 1.085,-6.832 3.257,-9.13c2.171,-2.298 5.068,-3.448 8.692,-3.448c2.021,0 3.803,0.375 5.346,1.123l0,3.773c-1.707,-1.198 -3.534,-1.797 -5.48,-1.797c-2.351,0 -4.279,0.842 -5.784,2.527s-2.257,3.897 -2.257,6.637c0,2.695 0.708,4.822 2.123,6.379c1.415,1.558 3.313,2.336 5.694,2.336c2.006,0 3.893,-0.666 5.66,-1.999l0,3.504l-0.001,0zm16.736,-18.215c-0.644,-0.494 -1.572,-0.741 -2.785,-0.741c-1.572,0 -2.886,0.741 -3.942,2.224s-1.583,3.504 -1.583,6.064l0,11.724l-3.684,0l0,-23l3.684,0l0,4.739l0.09,0c0.524,-1.617 1.325,-2.878 2.403,-3.785c1.078,-0.906 2.283,-1.359 3.616,-1.359c0.958,0 1.692,0.105 2.201,0.314l0,3.82zm12.783,19.81c-3.399,0 -6.113,-1.074 -8.142,-3.223c-2.029,-2.148 -3.043,-4.998 -3.043,-8.546c0,-3.863 1.056,-6.88 3.167,-9.052c2.111,-2.171 4.964,-3.257 8.558,-3.257c3.429,0 6.105,1.056 8.03,3.167c1.924,2.111 2.886,5.039 2.886,8.782c0,3.669 -1.037,6.607 -3.111,8.816c-2.075,2.209 -4.856,3.313 -8.345,3.313zm0.27,-20.978c-2.366,0 -4.238,0.805 -5.615,2.415c-1.378,1.61 -2.066,3.83 -2.066,6.66c0,2.726 0.696,4.874 2.089,6.446s3.257,2.358 5.593,2.358c2.381,0 4.211,-0.771 5.492,-2.313c1.28,-1.542 1.92,-3.736 1.92,-6.581c0,-2.875 -0.64,-5.091 -1.92,-6.648c-1.282,-1.559 -3.112,-2.337 -5.493,-2.337zm14.849,19.608l0,-3.953c2.006,1.482 4.215,2.224 6.626,2.224c3.234,0 4.852,-1.078 4.852,-3.234c0,-0.614 -0.139,-1.134 -0.416,-1.561c-0.277,-0.427 -0.651,-0.805 -1.123,-1.134c-0.472,-0.329 -1.026,-0.625 -1.662,-0.887c-0.637,-0.262 -1.322,-0.535 -2.055,-0.82c-1.019,-0.404 -1.913,-0.812 -2.684,-1.224c-0.771,-0.412 -1.415,-0.876 -1.932,-1.393s-0.906,-1.104 -1.168,-1.763c-0.262,-0.659 -0.393,-1.43 -0.393,-2.313c0,-1.078 0.247,-2.033 0.741,-2.864s1.153,-1.527 1.977,-2.089c0.823,-0.562 1.763,-0.984 2.819,-1.269c1.056,-0.284 2.145,-0.427 3.268,-0.427c1.991,0 3.773,0.345 5.346,1.033l0,3.729c-1.692,-1.108 -3.639,-1.662 -5.84,-1.662c-0.689,0 -1.311,0.079 -1.864,0.236c-0.554,0.157 -1.03,0.378 -1.426,0.663c-0.397,0.285 -0.704,0.625 -0.921,1.022c-0.217,0.397 -0.326,0.835 -0.326,1.314c0,0.599 0.108,1.101 0.326,1.505c0.217,0.404 0.535,0.764 0.955,1.078c0.419,0.314 0.928,0.599 1.527,0.854c0.599,0.255 1.28,0.532 2.044,0.831c1.018,0.39 1.932,0.79 2.74,1.202c0.809,0.412 1.497,0.876 2.066,1.393c0.569,0.517 1.007,1.112 1.314,1.786c0.307,0.674 0.46,1.475 0.46,2.403c0,1.138 -0.251,2.126 -0.752,2.965c-0.502,0.839 -1.172,1.535 -2.01,2.089c-0.839,0.554 -1.805,0.966 -2.897,1.235c-1.093,0.27 -2.239,0.404 -3.437,0.404c-2.366,-0.003 -4.418,-0.46 -6.155,-1.373zm29.697,1.37c-3.399,0 -6.113,-1.074 -8.142,-3.223c-2.029,-2.148 -3.043,-4.998 -3.043,-8.546c0,-3.863 1.056,-6.88 3.167,-9.052c2.111,-2.171 4.964,-3.257 8.558,-3.257c3.429,0 6.105,1.056 8.03,3.167c1.924,2.111 2.886,5.039 2.886,8.782c0,3.669 -1.037,6.607 -3.111,8.816c-2.075,2.209 -4.856,3.313 -8.345,3.313zm0.27,-20.978c-2.366,0 -4.238,0.805 -5.615,2.415c-1.378,1.61 -2.066,3.83 -2.066,6.66c0,2.726 0.696,4.874 2.089,6.446s3.257,2.358 5.593,2.358c2.381,0 4.211,-0.771 5.492,-2.313c1.28,-1.542 1.92,-3.736 1.92,-6.581c0,-2.875 -0.64,-5.091 -1.92,-6.648c-1.282,-1.559 -3.112,-2.337 -5.493,-2.337zm27.607,-10.377c-0.719,-0.404 -1.535,-0.606 -2.448,-0.606c-2.576,0 -3.863,1.625 -3.863,4.874l0,3.548l5.391,0l0,3.145l-5.391,0l0,19.855l-3.661,0l0,-19.855l-3.931,0l0,-3.145l3.931,0l0,-3.729c0,-2.411 0.696,-4.316 2.089,-5.716c1.393,-1.4 3.129,-2.1 5.211,-2.1c1.123,0 2.014,0.135 2.673,0.404l0,3.325l-0.001,0zm12.873,30.591c-0.869,0.479 -2.014,0.719 -3.437,0.719c-4.028,0 -6.042,-2.246 -6.042,-6.738l0,-13.611l-3.953,0l0,-3.145l3.953,0l0,-5.615l3.684,-1.19l0,6.805l5.795,0l0,3.145l-5.795,0l0,12.96c0,1.542 0.262,2.643 0.786,3.302c0.524,0.659 1.393,0.988 2.605,0.988c0.928,0 1.729,-0.254 2.403,-0.764l0,3.144l0.001,0zm41.29,0.225l-4.178,0l-3.414,-9.029l-13.656,0l-3.212,9.029l-4.2,0l12.354,-32.209l3.908,0l12.398,32.209zm-8.827,-12.421l-5.054,-13.724c-0.165,-0.449 -0.33,-1.168 -0.494,-2.156l-0.09,0c-0.15,0.914 -0.322,1.632 -0.517,2.156l-5.009,13.724l11.164,0zm28.281,-9.523l-13.611,18.8l13.477,0l0,3.144l-18.89,0l0,-1.146l13.611,-18.71l-12.331,0l0,-3.144l17.744,0l0,1.056zm22.531,21.944l-3.684,0l0,-3.639l-0.09,0c-1.527,2.785 -3.894,4.178 -7.098,4.178c-5.48,0 -8.221,-3.264 -8.221,-9.793l0,-13.746l3.661,0l0,13.162c0,4.852 1.856,7.277 5.57,7.277c1.797,0 3.275,-0.663 4.436,-1.988c1.16,-1.325 1.741,-3.058 1.741,-5.2l0,-13.251l3.684,0l0,23l0.001,0zm18.601,-19.271c-0.644,-0.494 -1.572,-0.741 -2.785,-0.741c-1.572,0 -2.886,0.741 -3.942,2.224s-1.583,3.504 -1.583,6.064l0,11.724l-3.684,0l0,-23l3.684,0l0,4.739l0.09,0c0.524,-1.617 1.325,-2.878 2.403,-3.785c1.078,-0.906 2.283,-1.359 3.616,-1.359c0.958,0 1.692,0.105 2.201,0.314l0,3.82zm21.655,8.692l-16.239,0c0.06,2.561 0.749,4.537 2.066,5.93c1.317,1.393 3.129,2.089 5.436,2.089c2.59,0 4.971,-0.854 7.143,-2.561l0,3.459c-2.021,1.468 -4.694,2.201 -8.019,2.201c-3.25,0 -5.803,-1.044 -7.659,-3.133c-1.857,-2.089 -2.785,-5.027 -2.785,-8.816c0,-3.579 1.014,-6.495 3.043,-8.749c2.029,-2.253 4.548,-3.38 7.558,-3.38s5.338,0.974 6.985,2.92c1.647,1.947 2.471,4.649 2.471,8.108l0,1.932zm-3.773,-3.122c-0.015,-2.126 -0.528,-3.781 -1.539,-4.964c-1.011,-1.183 -2.415,-1.774 -4.211,-1.774c-1.737,0 -3.212,0.622 -4.425,1.864c-1.213,1.243 -1.962,2.868 -2.246,4.874l12.421,0zm34.46,-48.299l-1,0l0,90l1,0l0,-90z" fill="#fff"/>
  <path id="svg_3" d="m601.026,-59.521c-6.343,4.851 -13.817,7.213 -21.238,7.213c-10.53,0 -20.943,-4.727 -27.824,-13.727c-11.757,-15.35 -8.855,-37.302 6.522,-49.064c6.342,-4.88 13.824,-7.209 21.235,-7.209c10.53,0 20.945,4.727 27.824,13.735c11.76,15.345 8.83,37.302 -6.519,49.052" fill="#59B4D9"/>
  <path id="svg_4" d="m206.595,86.829c2.543,3.316 7.262,3.915 10.56,1.406c0.172,-0.132 0.305,-0.291 0.462,-0.433c3.373,2.376 5.716,3.945 7.036,4.844c0.391,-1.012 0.661,-1.984 0.938,-2.999c-1.395,-1.038 -3.281,-2.49 -6.007,-4.699c0.895,-2.352 0.612,-5.097 -1.022,-7.241c-2.337,-3.025 -6.478,-3.793 -9.712,-1.928c-3.565,-3.198 -7.482,-6.864 -11.613,-10.968c12.834,-6.902 21.951,-5.891 21.951,-5.891c-1.522,-1.941 -3.228,-3.641 -5.049,-5.177c-5.412,-0.836 -13.819,-0.742 -23.425,4.367l-0.003,-0.004l-0.001,0c-3.201,-3.351 -6.459,-6.943 -9.778,-10.799c-1.588,0.508 -3.139,1.137 -4.638,1.886c2.449,4.008 5.744,8.05 9.457,11.993l0.024,0.024c-3.096,2.165 -6.544,5.059 -9.724,8.423c-0.406,0.433 -0.797,0.868 -1.179,1.304c-1.9,-0.398 -3.898,-0.281 -5.765,0.395c-3.17,-6.84 -2.915,-12.335 -2.414,-15.168c-1.376,1.442 -2.662,2.959 -3.77,4.575c-0.828,3.382 -1.063,8.259 1.379,14.136c-2.827,3.7 -2.96,8.946 -0.007,12.817c0.246,0.321 0.51,0.619 0.783,0.903c-1.29,4.393 -1.867,8.63 -2.044,12.268l0.661,1.255c1.679,2.154 3.788,3.968 5.825,5.612c-0.252,-3.851 0.02,-9.53 2.4,-15.924c1.643,0.125 3.313,-0.134 4.877,-0.793c0.896,0.788 1.834,1.585 2.836,2.396c3.435,2.719 6.861,4.835 10.201,6.502c-0.174,1.699 0.252,3.464 1.355,4.926c2.359,3.047 6.728,3.616 9.778,1.287c0.634,-0.486 1.136,-1.073 1.552,-1.703c5.446,1.213 10.204,1.427 13.731,1.427c0.541,0 3.048,-3.411 4.485,-5.526c-2.148,0.449 -8.518,1.325 -17.223,-1.176c-0.21,-0.977 -0.612,-1.927 -1.257,-2.773c-2.211,-2.899 -6.254,-3.526 -9.267,-1.587c-3.026,-1.641 -6.195,-3.698 -9.463,-6.287c-0.66,-0.522 -1.292,-1.043 -1.903,-1.566c1.997,-3.146 2.21,-7.179 0.445,-10.572c0.401,-0.4 0.794,-0.802 1.22,-1.2c3.236,-3.023 6.28,-5.443 9.128,-7.385l-0.33,-0.326l0.335,0.318l-0.003,0.001c4.37,4.041 9.004,7.871 13.392,11.293c-1.162,2.461 -0.98,5.459 0.786,7.767z" fill="#fff"/>
  <path id="svg_5" d="m710.836,-48.309c-1.725,0 -3.349,-0.672 -4.565,-1.893l-28.544,-28.543c-1.203,-1.203 -1.891,-2.864 -1.891,-4.565c0,-1.7 0.689,-3.363 1.891,-4.564l28.544,-28.543c1.219,-1.221 2.841,-1.893 4.565,-1.893c1.723,0 3.346,0.672 4.565,1.893l28.54,28.543c1.222,1.215 1.893,2.838 1.893,4.564s-0.671,3.349 -1.894,4.568l-28.538,28.54c-1.219,1.221 -2.843,1.893 -4.566,1.893" fill="#55ADD3"/>
  <path id="svg_6" d="m721.894,95.221c-3.024,0 -5.474,2.45 -5.474,5.472c0,1.109 0.335,2.138 0.903,3l-10.841,10.841c-0.288,-0.202 -0.598,-0.37 -0.918,-0.522l0,-27.658c1.634,-0.946 2.745,-2.694 2.745,-4.718c0,-3.023 -2.45,-5.472 -5.474,-5.472c-3.021,0 -5.471,2.45 -5.471,5.472c0,2.024 1.112,3.772 2.744,4.718l0,27.658c-0.307,0.146 -0.608,0.302 -0.885,0.494l-10.854,-10.854c0.552,-0.854 0.879,-1.866 0.879,-2.958c0,-3.023 -2.45,-5.472 -5.471,-5.472c-3.024,0 -5.474,2.45 -5.474,5.472c0,3.023 2.45,5.472 5.474,5.472c0.627,0 1.221,-0.127 1.784,-0.322l11.41,11.41c-0.328,0.767 -0.51,1.61 -0.51,2.496c0,3.518 2.853,6.371 6.371,6.371c3.52,0 6.371,-2.853 6.371,-6.371c0,-0.869 -0.176,-1.697 -0.491,-2.451l11.442,-11.441c0.549,0.185 1.126,0.308 1.737,0.308c3.021,0 5.471,-2.45 5.471,-5.472c0,-3.023 -2.448,-5.473 -5.468,-5.473z" fill="#fff"/>
  <rect id="svg_7" height="28.946" width="3.532" fill="#fff" opacity="0.5" transform="matrix(0.707,-0.707,0.707,0.707,144.067,531.108) " y="77.211" x="711.244"/>
  <rect id="svg_8" height="3.533" width="28.947" fill="#fff" opacity="0.5" transform="matrix(0.707,-0.707,0.707,0.707,138.038,516.659) " y="89.936" x="678.208"/>
  <path id="svg_9" d="m706.566,119.75c0,2.094 -1.7,3.793 -3.794,3.793c-2.096,0 -3.793,-1.698 -3.793,-3.793s1.697,-3.793 3.793,-3.793c2.093,0 3.794,1.699 3.794,3.793" fill="#B8D432"/>
  <path id="svg_10" d="m705.878,81.636c0,1.681 -1.362,3.044 -3.044,3.044c-1.681,0 -3.044,-1.362 -3.044,-3.044s1.362,-3.044 3.044,-3.044s3.044,1.362 3.044,3.044" fill="#B8D432"/>
  <path id="svg_11" d="m686.823,100.692c0,1.681 -1.365,3.044 -3.044,3.044c-1.681,0 -3.044,-1.362 -3.044,-3.044s1.362,-3.044 3.044,-3.044c1.679,0.001 3.044,1.363 3.044,3.044" fill="#B8D432"/>
  <path id="svg_12" d="m724.937,100.692c0,1.681 -1.365,3.044 -3.045,3.044s-3.044,-1.362 -3.044,-3.044s1.364,-3.044 3.044,-3.044c1.68,0.001 3.045,1.363 3.045,3.044" fill="#B8D432"/>
  <path id="svg_13" d="m725.401,-82.416c-1.219,-1.221 -2.841,-1.893 -4.565,-1.893c-1.723,0 -3.345,0.672 -4.564,1.893l-28.544,28.543c-1.204,1.201 -1.893,2.864 -1.893,4.564c0,1.701 0.689,3.364 1.893,4.565l16.16,16.161l30.4,-44.948l-8.887,-8.885z" fill="#69c" opacity="0.1"/>
  <path id="svg_14" d="m771.512,-68.746l0,50.873c0,5.282 11.823,9.564 26.405,9.564l0,-60.437l-26.405,0z" fill="#3999C6"/>
  <path id="svg_15" d="m801.555,-18.31l0.362,0c14.582,0 26.405,-4.28 26.405,-9.563l0,-50.873l-26.767,0l0,60.436z" fill="#59B4D9"/>
  <path id="svg_16" d="m812.322,-82.746c0,5.282 -11.823,9.563 -26.405,9.563s-26.405,-4.281 -26.405,-9.563s11.823,-9.563 26.405,-9.563s26.405,4.282 26.405,9.563" fill="#fff"/>
  <path id="svg_17" d="m814.924,-53.297c0,3.487 -9.405,6.31 -21.006,6.31s-21.008,-2.823 -21.008,-6.31c0,-3.485 9.406,-6.31 21.008,-6.31c11.601,0 21.006,2.825 21.006,6.31" fill="#7FBA00"/>
  <path id="svg_18" d="m790.523,-51.441c2.75,-1.066 4.402,-2.402 4.402,-3.853c0,-3.487 -9.405,-6.311 -21.008,-6.311c-11.601,0 -21.007,2.825 -21.007,6.311c0,1.451 1.653,2.787 4.402,3.853c3.84,-1.491 9.842,-2.453 16.604,-2.453c6.765,0.001 12.764,0.963 16.607,2.453" fill="#B8D432"/>
  <path id="svg_19" d="m842.983,-19.496c-1.413,1.178 -3.328,1.769 -5.815,1.769l-8.298,0l0,-21.643l7.871,0c2.478,0 4.377,0.452 5.683,1.389c1.223,0.879 1.836,2.109 1.836,3.68c0,1.252 -0.447,2.317 -1.358,3.254c-0.776,0.775 -1.709,1.31 -2.858,1.624l0,0.051c1.543,0.19 2.802,0.778 3.74,1.765c0.878,0.937 1.33,2.086 1.33,3.415c0.005,1.979 -0.716,3.529 -2.131,4.696m-20.223,-1.275c-2.077,2.031 -4.88,3.044 -8.378,3.044l-7.661,0l0,-21.643l7.661,0c7.685,0 11.528,3.498 11.528,10.538c0,3.365 -1.039,6.059 -3.15,8.061" fill="#fff"/>
  <path id="svg_20" d="m817.982,100.58l-2.401,0l0,13.741l2.429,0c2.134,0 3.788,-0.668 5.012,-1.948c1.172,-1.281 1.765,-2.988 1.765,-5.148c0,-2.027 -0.593,-3.625 -1.738,-4.808c-1.201,-1.223 -2.882,-1.837 -5.067,-1.837" fill="#3999C6"/>
  <path id="svg_21" d="m842.233,104.613c0.586,-0.51 0.879,-1.178 0.879,-2.006c0,-1.605 -1.172,-2.403 -3.55,-2.403l-1.834,0l0,5.128l2.16,0c0.987,0 1.787,-0.247 2.345,-0.719" fill="#59B4D9"/>
  <path id="svg_22" d="m843.035,109.703c-0.642,-0.478 -1.516,-0.747 -2.644,-0.747l-2.667,0l0,5.708l2.641,0c1.123,0 2.027,-0.266 2.695,-0.8c0.613,-0.535 0.931,-1.224 0.931,-2.134c0.006,-0.854 -0.314,-1.548 -0.956,-2.027" fill="#59B4D9"/>
  <path id="svg_23" d="m922,127.851c0,1.4 0.98,2.66 2.66,2.66l64.68,0c1.4,0 2.66,-0.98 2.66,-2.66l0,-46.34l-70,0l0,46.34z" fill="#A0A1A2"/>
  <path id="svg_24" d="m989.34,70.871l-64.68,0c-1.68,0 -2.66,1.26 -2.66,2.66l0,7.98l70,0l0,-7.98c0,-1.4 -0.98,-2.66 -2.66,-2.66" fill="#7A7A7A"/>
  <rect id="svg_25" height="10.64" width="17.64" fill="#fff" y="86.131" x="950.32"/>
  <rect stroke="null" id="svg_26" height="10.64" width="17.64" fill="#FCD116" y="-63.449" x="280.32"/>
  <rect id="svg_27" height="10.64" width="17.64" fill="#FCD116" y="-77.449" x="296.32"/>
  <rect id="svg_28" height="10.64" width="17.64" fill="#fff" y="86.131" x="969.32"/>
  <rect id="svg_29" height="10.64" width="17.64" fill="#fff" y="-55.869" x="227.32"/>
  <rect id="svg_30" height="10.64" width="17.64" fill="#fff" y="100.551" x="927.32"/>
  <rect id="svg_31" height="10.64" width="17.64" fill="#FCD116" y="114.831" x="927.32"/>
  <rect stroke="null" id="svg_32" height="10.64" width="17.64" fill="#FCD116" y="-51.169" x="268.32"/>
  <rect id="svg_33" height="10.64" width="17.64" fill="#FCD116" y="114.831" x="969.32"/>
  <path id="svg_34" d="m856.66,-135.129c-1.26,0 -2.66,1.26 -2.66,2.66l0,54.32c0,1.4 1.4,2.66 2.66,2.66l2.94,0l55.44,-59.64l-58.38,0z" fill="#fff" opacity="0.2"/>
  <path id="svg_36" d="m123,180" opacity="0.5" fill-opacity="null" stroke-opacity="null" stroke-width="1.5" stroke="#000" fill="#fff"/>
  <rect id="svg_37" height="118" width="390" y="151" x="627" fill-opacity="null" stroke-opacity="null" stroke-width="null" stroke="null" fill="#1D4380"/>
  <rect stroke="null" id="svg_38" height="153.999995" width="425.999977" y="53.000005" x="585.00001" fill-opacity="null" stroke-opacity="null" stroke-width="null" fill="#1D4380"/>
  <text stroke="null" transform="matrix(1.1041666269302368,0,0,1,-25.937490105628967,0) " xml:space="preserve" text-anchor="start" font-family="Helvetica, Arial, sans-serif" font-size="24" id="svg_39" y="107" x="241.754717" stroke-opacity="null" stroke-width="0" fill="#ffffff">各种烦心</text>
  <text xml:space="preserve" text-anchor="start" font-family="Helvetica, Arial, sans-serif" font-size="24" id="svg_40" y="108" x="366" fill-opacity="null" stroke-opacity="null" stroke-width="0" stroke="null" fill="#ffffff">各种琐事</text>
  <text xml:space="preserve" text-anchor="start" font-family="Helvetica, Arial, sans-serif" font-size="24" id="svg_41" y="109" x="489" fill-opacity="null" stroke-opacity="null" stroke-width="0" stroke="null" fill="#ffffff">各种奇葩</text>
 </g>
</svg>