<svg width="1140" height="360" xmlns="http://www.w3.org/2000/svg">

 <g>
  <title>background</title>
  <rect fill="none" id="canvas_background" height="402" width="582" y="-1" x="-1"/>
 </g>
 <g>
  <title>Layer 1</title>
  <path stroke="null" id="svg_1" d="m0.000027,0l1139.999973,0l0,360l-1139.999973,0l0,-360z" fill="#68217A"/>
  <polygon id="svg_2" points="625.457,132.801 619.654,67.717 683.416,67.717 677.607,132.791 651.496,140.03" fill="#E44D26"/>
  <polygon id="svg_3" points="651.535,134.497 672.634,128.648 677.598,73.039 651.535,73.039" fill="#F16529"/>
  <polygon id="svg_4" points="651.535,97.178 640.973,97.178 640.243,89.004 651.535,89.004 651.535,81.021 651.508,81.021 631.519,81.021 631.71,83.163 633.672,105.16 651.535,105.16" fill="#EBEBEB"/>
  <polygon id="svg_5" points="651.535,117.909 651.5,117.918 642.61,115.517 642.042,109.151 637.722,109.151 634.029,109.151 635.147,121.685 651.499,126.224 651.535,126.214" fill="#EBEBEB"/>
  <path id="svg_6" d="m625.587,50.03l4.057,0l0,4.008l3.711,0l0,-4.008l4.057,0l0,12.137l-4.057,0l0,-4.064l-3.711,0l0,4.064l-4.057,0l0,-12.137zm17.158,4.025l-3.571,0l0,-4.025l11.201,0l0,4.025l-3.573,0l0,8.112l-4.057,0l0,-8.112zm9.407,-4.025l4.23,0l2.602,4.264l2.599,-4.264l4.231,0l0,12.137l-4.04,0l0,-6.016l-2.791,4.315l-0.07,0l-2.793,-4.315l0,6.016l-3.969,0l0,-12.137l0.001,0zm15.682,0l4.058,0l0,8.125l5.705,0l0,4.012l-9.762,0l0,-12.137l-0.001,0z"/>
  <polygon id="svg_7" points="651.508,97.178 651.508,105.16 661.337,105.16 660.41,115.512 651.508,117.915 651.508,126.22 667.872,121.685 667.992,120.336 669.868,99.321 670.062,97.178 667.911,97.178" fill="#fff"/>
  <polygon id="svg_8" points="651.508,81.021 651.508,85.979 651.508,88.984 651.508,89.004 670.763,89.004 670.763,89.004 670.789,89.004 670.949,87.209 671.313,83.163 671.503,81.021" fill="#fff"/>
  <polygon id="svg_9" points="777.75,55.803 777.75,51.656 767.862,51.656 767.862,63.777 777.75,63.777 777.75,59.631 772.008,59.631 772.008,55.803"/>
  <polygon id="svg_10" points="791.785,51.656 781.896,51.656 781.896,55.913 786.023,59.631 781.896,59.631 781.896,63.777 791.785,63.777 791.785,59.74 788.034,55.803 791.785,55.803"/>
  <polygon id="svg_11" points="806.138,51.656 796.25,51.656 796.25,55.913 800.217,59.631 796.25,59.631 796.25,63.777 806.138,63.777 806.138,59.74 802.228,55.803 806.138,55.803"/>
  <polygon id="svg_12" points="760.908,134.424 755.103,69.309 818.897,69.309 813.085,134.413 786.961,141.656" fill="#0071BC"/>
  <polygon id="svg_13" points="787.054,136.117 808.137,130.316 813.077,74.732 787.054,74.732" fill="#29ABE2"/>
  <polygon id="svg_14" points="768.392,98.655 769.091,106.629 787.054,98.655 787.054,90.668" fill="#B3B3B3"/>
  <polygon id="svg_15" points="806.948,82.142 787.054,90.668 787.054,98.655 806.262,90.116" fill="#E6E6E6"/>
  <polygon id="svg_16" points="787.054,119.519 786.992,119.529 778.084,117.136 777.502,110.776 769.485,110.776 770.603,123.307 786.99,127.844 787.054,127.829" fill="#E6E6E6"/>
  <polygon id="svg_17" points="787.054,98.655 787.054,106.629 796.807,106.629 795.92,117.055 787.054,119.526 787.054,127.835 803.386,123.298 805.536,98.655" fill="#fff"/>
  <polygon id="svg_18" points="787.054,98.655 768.392,98.655 769.091,106.629 787.054,106.629" fill="#E6E6E6"/>
  <polygon id="svg_19" points="787.054,90.116 787.054,82.142 786.973,82.142 766.974,82.142 767.682,90.116" fill="#E6E6E6"/>
  <polygon id="svg_20" points="787.054,82.142 787.054,90.016 787.054,90.116 806.262,90.116 806.948,82.142" fill="#fff"/>
  <rect id="svg_21" height="70" width="70" fill="#F0DB4F" y="64.25" x="882.25"/>
  <path id="svg_22" d="m929.272,118.938c1.41,2.302 3.244,3.994 6.489,3.994c2.726,0 4.467,-1.362 4.467,-3.244c0,-2.256 -1.789,-3.054 -4.789,-4.367l-1.644,-0.706c-4.747,-2.022 -7.9,-4.556 -7.9,-9.911c0,-4.933 3.759,-8.689 9.633,-8.689c4.182,0 7.189,1.456 9.356,5.267l-5.122,3.289c-1.128,-2.022 -2.344,-2.819 -4.233,-2.819c-1.927,0 -3.148,1.222 -3.148,2.819c0,1.973 1.222,2.772 4.044,3.994l1.644,0.704c5.589,2.397 8.744,4.84 8.744,10.333c0,5.922 -4.652,9.167 -10.9,9.167c-6.109,0 -10.056,-2.911 -11.987,-6.727l5.346,-3.104zm-23.236,0.57c1.033,1.833 1.973,3.383 4.233,3.383c2.161,0 3.524,-0.846 3.524,-4.133l0,-22.367l6.578,0l0,22.456c0,6.811 -3.993,9.911 -9.822,9.911c-5.267,0 -8.317,-2.726 -9.868,-6.008l5.355,-3.242z" fill="#353630"/>
  <path id="svg_23" fill="#fff" d="m296.374,83.453c0,0.708 -0.246,1.296 -0.737,1.763c-0.494,0.47 -1.076,0.704 -1.752,0.704c-0.693,0 -1.277,-0.227 -1.752,-0.681c-0.477,-0.452 -0.715,-1.048 -0.715,-1.786c0,-0.66 0.234,-1.234 0.703,-1.717c0.468,-0.484 1.057,-0.727 1.765,-0.727c0.706,0 1.299,0.239 1.775,0.715c0.475,0.477 0.713,1.054 0.713,1.729zm177.29,0c0,0.708 -0.245,1.296 -0.737,1.763c-0.494,0.47 -1.076,0.704 -1.752,0.704c-0.693,0 -1.277,-0.227 -1.752,-0.681c-0.477,-0.452 -0.715,-1.048 -0.715,-1.786c0,-0.66 0.234,-1.234 0.703,-1.717c0.468,-0.484 1.057,-0.727 1.765,-0.727c0.706,0 1.299,0.239 1.775,0.715c0.475,0.477 0.713,1.054 0.713,1.729zm-184.79,-1.697l-12.216,33.052l-4.241,0l-12.008,-33.052l4.31,0l9.842,28.212l0.092,0l10.072,-28.212l4.149,0zm6.822,33.052l-3.78,0l0,-23.602l3.78,0l0,23.602zm19.173,-6.316c0,2.044 -0.788,3.703 -2.362,4.978c-1.575,1.276 -3.669,1.913 -6.281,1.913c-2.228,0 -4.18,-0.476 -5.854,-1.429l0,-4.056c1.859,1.506 3.903,2.258 6.131,2.258c2.996,0 4.494,-1.098 4.494,-3.296c0,-0.891 -0.292,-1.617 -0.876,-2.178c-0.584,-0.561 -1.913,-1.317 -3.988,-2.27c-2.09,-0.891 -3.565,-1.848 -4.425,-2.87c-0.861,-1.022 -1.291,-2.378 -1.291,-4.068c0,-1.951 0.784,-3.58 2.351,-4.886s3.557,-1.959 5.97,-1.959c1.859,0 3.542,0.369 5.048,1.106l0,3.803c-1.537,-1.121 -3.319,-1.682 -5.347,-1.682c-1.244,0 -2.247,0.308 -3.008,0.922c-0.761,0.614 -1.141,1.406 -1.141,2.374c0,1.045 0.292,1.848 0.876,2.408c0.584,0.561 1.79,1.226 3.619,1.994c2.243,0.953 3.818,1.951 4.725,2.996c0.906,1.046 1.359,2.36 1.359,3.942zm23.041,6.316l-3.78,0l0,-3.734l-0.092,0c-1.567,2.873 -3.987,4.31 -7.26,4.31c-5.639,0 -8.459,-3.357 -8.459,-10.072l0,-14.106l3.78,0l0,13.507c0,4.964 1.905,7.444 5.716,7.444c1.875,0 3.396,-0.68 4.564,-2.04c1.168,-1.36 1.752,-3.13 1.752,-5.313l0,-13.598l3.78,0l0,23.602l-0.001,0zm22.716,0l-3.78,0l0,-3.688l-0.092,0c-1.644,2.843 -4.064,4.264 -7.26,4.264c-2.274,0 -4.095,-0.618 -5.462,-1.855c-1.368,-1.237 -2.051,-2.9 -2.051,-4.99c0,-4.394 2.597,-6.961 7.791,-7.698l7.076,-0.991c0,-3.995 -1.621,-5.993 -4.863,-5.993c-2.843,0 -5.409,0.96 -7.698,2.881l0,-3.872c0.692,-0.522 1.875,-1.026 3.549,-1.51c1.675,-0.484 3.165,-0.726 4.472,-0.726c5.547,0 8.321,2.943 8.321,8.828l0,15.35l-0.003,0zm-3.78,-11.94l-5.716,0.807c-1.952,0.276 -3.319,0.741 -4.103,1.394c-0.784,0.653 -1.176,1.71 -1.176,3.17c0,1.183 0.422,2.132 1.268,2.846c0.845,0.714 1.928,1.071 3.25,1.071c1.875,0 3.423,-0.66 4.644,-1.982c1.222,-1.321 1.832,-2.973 1.832,-4.956l0,-2.35l0.001,0zm13.13,11.94l-3.78,0l0,-34.942l3.78,0l0,34.942zm29.875,-8.344c0,2.781 -0.983,4.964 -2.95,6.546c-1.967,1.583 -4.641,2.374 -8.021,2.374c-1.23,0 -2.616,-0.204 -4.16,-0.611c-1.544,-0.407 -2.639,-0.833 -3.284,-1.279l0,-4.587c0.937,0.845 2.17,1.552 3.699,2.121s2.954,0.853 4.276,0.853c4.241,0 6.361,-1.652 6.361,-4.956c0,-1.383 -0.453,-2.57 -1.36,-3.561c-0.907,-0.991 -2.766,-2.294 -5.578,-3.907c-2.719,-1.536 -4.625,-2.996 -5.716,-4.379c-1.091,-1.383 -1.637,-3.065 -1.637,-5.048c0,-2.612 0.976,-4.736 2.927,-6.373c1.951,-1.637 4.472,-2.455 7.56,-2.455c2.965,0 5.132,0.392 6.5,1.176l0,4.333c-1.721,-1.352 -3.957,-2.028 -6.707,-2.028c-1.829,0 -3.323,0.457 -4.483,1.371c-1.16,0.914 -1.74,2.124 -1.74,3.63c0,1.091 0.173,1.967 0.519,2.627c0.346,0.661 0.93,1.314 1.752,1.959c0.822,0.646 2.209,1.514 4.16,2.604c2.919,1.629 4.963,3.166 6.131,4.61c1.167,1.446 1.751,3.105 1.751,4.98zm15.151,8.113c-0.907,0.507 -2.09,0.761 -3.549,0.761c-4.118,0 -6.177,-2.32 -6.177,-6.961l0,-13.967l-4.057,0l0,-3.204l4.057,0l0,-5.762l3.78,-1.221l0,6.983l5.946,0l0,3.204l-5.946,0l0,13.322c0,1.583 0.269,2.709 0.807,3.377c0.538,0.668 1.437,1.003 2.697,1.003c0.937,0 1.752,-0.254 2.443,-0.761l0,3.226l-0.001,0zm22.793,0.231l-3.78,0l0,-3.734l-0.092,0c-1.567,2.873 -3.987,4.31 -7.26,4.31c-5.639,0 -8.459,-3.357 -8.459,-10.072l0,-14.106l3.78,0l0,13.507c0,4.964 1.905,7.444 5.716,7.444c1.874,0 3.396,-0.68 4.563,-2.04c1.168,-1.36 1.752,-3.13 1.752,-5.313l0,-13.598l3.78,0l0,23.602zm25.871,0l-3.78,0l0,-4.011l-0.092,0c-1.752,3.058 -4.456,4.587 -8.113,4.587c-2.981,0 -5.355,-1.071 -7.122,-3.215c-1.767,-2.143 -2.651,-5.005 -2.651,-8.586c0,-3.902 0.98,-7.037 2.939,-9.404c1.959,-2.366 4.583,-3.549 7.871,-3.549c3.227,0 5.585,1.276 7.076,3.826l0.092,0l0,-14.59l3.78,0l0,34.942zm-3.78,-10.672l0,-3.48c0,-1.951 -0.65,-3.572 -1.948,-4.863c-1.299,-1.291 -2.878,-1.936 -4.737,-1.936c-2.274,0 -4.079,0.841 -5.416,2.524s-2.005,4.015 -2.005,6.995c0,2.705 0.63,4.844 1.89,6.419c1.26,1.575 2.958,2.363 5.094,2.363c2.074,0 3.78,-0.752 5.117,-2.258c1.337,-1.508 2.005,-3.428 2.005,-5.764zm13.282,10.672l-3.78,0l0,-23.602l3.78,0l0,23.602zm27.536,-11.893c0,3.749 -1.064,6.765 -3.192,9.047c-2.128,2.282 -4.982,3.423 -8.563,3.423c-3.488,0 -6.273,-1.11 -8.355,-3.33c-2.082,-2.22 -3.123,-5.143 -3.123,-8.77c0,-3.903 1.068,-6.987 3.204,-9.254c2.135,-2.266 5.078,-3.4 8.828,-3.4c3.503,0 6.246,1.095 8.228,3.285c1.982,2.188 2.973,5.188 2.973,8.999zm-3.872,0.138c0,-2.965 -0.657,-5.24 -1.971,-6.823c-1.314,-1.582 -3.192,-2.374 -5.635,-2.374c-2.428,0 -4.349,0.811 -5.762,2.432c-1.414,1.621 -2.12,3.906 -2.12,6.857c0,2.828 0.71,5.036 2.132,6.626c1.421,1.59 3.338,2.385 5.751,2.385c2.458,0 4.341,-0.784 5.647,-2.351c1.304,-1.566 1.958,-3.817 1.958,-6.752zm-266.807,-32.32l-21.866,21.866l-13.946,-10.847l-5.509,2.754l0,27.547l5.509,2.755l13.946,-10.848l21.866,21.866l13.774,-5.509l0,-44.075l-13.774,-5.509zm-35.812,35.811l0,-16.528l8.265,8.265l-8.265,8.263zm21.251,-8.263l14.561,-11.326l0,22.651l-14.561,-11.325z"/>
  <rect id="svg_24" height="74" width="1" fill="#fff" y="61" x="548.5"/>
  <rect id="svg_25" height="102" width="338" y="55" x="175" stroke-width="1.5" stroke="#000" fill="#fff"/>
  <rect id="svg_28" height="146" width="374" y="39" x="155" opacity="0.5" fill-opacity="null" stroke-opacity="null" stroke-width="1.5" stroke="#000" fill="#fff"/>
  <rect stroke="null" id="svg_29" height="160.000011" width="401.999988" y="32.999995" x="137" fill-opacity="null" stroke-opacity="null" stroke-width="null" fill="#68217A"/>
  <rect stroke="null" id="svg_30" height="160.000011" width="391.999993" y="34.999995" x="603" fill-opacity="null" stroke-opacity="null" stroke-width="null" fill="#68217A"/>
  <text stroke="null" transform="matrix(1.66882797172687,0,0,1.857915521702474,-183.28339604528608,-16.749272865756303) " xml:space="preserve" text-anchor="start" font-family="Helvetica, Arial, sans-serif" font-size="24" id="svg_31" y="70.425861" x="300.90263" stroke-opacity="null" stroke-width="0" fill="#ffffff">家庭和睦照</text>
  <text stroke="null" transform="matrix(1.40775352072423,0,0,1.6818920678366194,-236.88976484379108,-49.4786472311141) " xml:space="preserve" text-anchor="start" font-family="Helvetica, Arial, sans-serif" font-size="24" id="svg_33" y="96.473969" x="578.121467" fill-opacity="null" stroke-opacity="null" stroke-width="0" fill="#ffffff">和大家一起分享快乐。</text>
 </g>
</svg>